<svg width="18" height="18" viewBox="0 0 18 18" fill="none" xmlns="http://www.w3.org/2000/svg">
<path d="M8 8L0 8V1.5C0 0.671572 0.671573 0 1.5 0H8L8 8Z" fill="black"/>
<path d="M8 10L8 18H1.5C0.671573 18 0 17.3284 0 16.5V10H8Z" fill="black"/>
<path d="M10 10V18H16.5C17.3284 18 18 17.3284 18 16.5V10H10Z" fill="black"/>
<path d="M14 0C14.5523 0 15 0.447715 15 1V3H17C17.5523 3 18 3.44772 18 4C18 4.55228 17.5523 5 17 5H15V7C15 7.55228 14.5523 8 14 8C13.4477 8 13 7.55228 13 7V5H11C10.4477 5 10 4.55228 10 4C10 3.44771 10.4477 3 11 3H13V1C13 0.447715 13.4477 0 14 0Z" fill="black"/>
</svg>
