<svg width="19" height="17" viewBox="0 0 19 17" fill="none" xmlns="http://www.w3.org/2000/svg">
<path fill-rule="evenodd" clip-rule="evenodd" d="M0 1.5C0 0.671573 0.671573 0 1.5 0H16.5C17.3284 0 18 0.671573 18 1.5V3.5C18 4.32843 17.3284 5 16.5 5H1.5C0.671573 5 0 4.32843 0 3.5V1.5ZM3.5 2.5C3.5 3.05228 3.05228 3.5 2.5 3.5C1.94772 3.5 1.5 3.05228 1.5 2.5C1.5 1.94772 1.94772 1.5 2.5 1.5C3.05228 1.5 3.5 1.94772 3.5 2.5Z" fill="black"/>
<path fill-rule="evenodd" clip-rule="evenodd" d="M0 7.5C0 6.67157 0.671573 6 1.5 6H7.57295C8.68802 6 9.41327 7.17347 8.91459 8.17082L7.91459 10.1708C7.6605 10.679 7.14111 11 6.57295 11H1.5C0.671573 11 0 10.3284 0 9.5V7.5ZM3.5 8.5C3.5 9.05228 3.05228 9.5 2.5 9.5C1.94772 9.5 1.5 9.05228 1.5 8.5C1.5 7.94771 1.94772 7.5 2.5 7.5C3.05228 7.5 3.5 7.94771 3.5 8.5Z" fill="black"/>
<path fill-rule="evenodd" clip-rule="evenodd" d="M0 13.5C0 12.6716 0.671573 12 1.5 12H6.77029C7.48532 12 8.10094 12.5047 8.24117 13.2058L8.64116 15.2058C8.8268 16.134 8.11686 17 7.17029 17H1.5C0.671573 17 0 16.3284 0 15.5V13.5ZM3.5 14.5C3.5 15.0523 3.05228 15.5 2.5 15.5C1.94772 15.5 1.5 15.0523 1.5 14.5C1.5 13.9477 1.94772 13.5 2.5 13.5C3.05228 13.5 3.5 13.9477 3.5 14.5Z" fill="black"/>
<path fill-rule="evenodd" clip-rule="evenodd" d="M11.1587 11.059L10.4769 10.6304C10.3636 10.563 10.2652 10.4742 10.1876 10.3692C10.11 10.2641 10.0547 10.1451 10.0251 10.0189C9.99545 9.8928 9.99204 9.76216 10.015 9.63472C10.038 9.50728 10.087 9.38561 10.159 9.27689C10.231 9.16816 10.3246 9.07458 10.4343 9.00165C10.544 8.92872 10.6676 8.87792 10.7978 8.85224C10.928 8.82656 11.0621 8.82653 11.1923 8.85214C11.3225 8.87775 11.4461 8.92848 11.5559 9.00136L12.2377 9.42897C12.6067 9.11971 13.0384 8.88945 13.5047 8.75313V7.96965C13.5047 7.71248 13.6095 7.46585 13.7962 7.284C13.9829 7.10216 14.236 7 14.5 7C14.764 7 15.0171 7.10216 15.2038 7.284C15.3905 7.46585 15.4953 7.71248 15.4953 7.96965V8.75313C15.9671 8.89082 16.3981 9.12353 16.7623 9.42897L17.4441 9.00039C17.6658 8.87376 17.929 8.83545 18.179 8.89345C18.4289 8.95144 18.6462 9.10127 18.7854 9.31163C18.9247 9.52199 18.9751 9.77663 18.9262 10.0224C18.8773 10.2681 18.7329 10.4859 18.5231 10.6304L17.8413 11.059C18.0242 11.6737 18.0242 12.3263 17.8413 12.941L18.5231 13.3706C18.6364 13.438 18.7348 13.5268 18.8124 13.6318C18.89 13.7368 18.9453 13.8559 18.9749 13.982C19.0045 14.1082 19.008 14.2388 18.985 14.3662C18.962 14.4937 18.913 14.6154 18.841 14.7241C18.769 14.8328 18.6754 14.9264 18.5657 14.9993C18.456 15.0723 18.3324 15.1231 18.2022 15.1487C18.072 15.1744 17.9379 15.1744 17.8077 15.1488C17.6775 15.1232 17.5539 15.0725 17.4441 14.9996L16.7623 14.571C16.3933 14.8803 15.9616 15.1105 15.4953 15.2469V16.0303C15.4953 16.2875 15.3905 16.5342 15.2038 16.716C15.0171 16.8978 14.764 17 14.5 17C14.236 17 13.9829 16.8978 13.7962 16.716C13.6095 16.5342 13.5047 16.2875 13.5047 16.0303V15.2469C13.0384 15.1105 12.6067 14.8803 12.2377 14.571L11.5559 14.9996C11.3338 15.1384 11.0643 15.186 10.8064 15.1318C10.5485 15.0777 10.323 14.9263 10.1793 14.7107C10.0365 14.4944 9.98777 14.2317 10.0438 13.9804C10.0998 13.7291 10.2559 13.5097 10.4779 13.3706L11.1587 12.941C10.9758 12.3263 10.9758 11.6737 11.1587 11.059ZM14.5 10.5518C13.6799 10.5518 13.013 11.2015 13.013 12.0005C13.013 12.7995 13.6799 13.4491 14.5 13.4491C15.3201 13.4491 15.987 12.7995 15.987 12.0005C15.987 11.2015 15.3201 10.5518 14.5 10.5518Z" fill="black"/>
</svg>
