<svg width="23" height="23" viewBox="0 0 23 23" fill="none" xmlns="http://www.w3.org/2000/svg">
<path d="M18.2083 1.91663H4.79167C3.72792 1.91663 2.875 2.77913 2.875 3.83329V17.25C2.875 18.3041 3.7375 19.1666 4.79167 19.1666H8.625L10.8196 21.3612C11.1933 21.735 11.7971 21.735 12.1708 21.3612L14.375 19.1666H18.2083C19.2625 19.1666 20.125 18.3041 20.125 17.25V3.83329C20.125 2.77913 19.2625 1.91663 18.2083 1.91663ZM12.4583 17.25H10.5417V15.3333H12.4583V17.25ZM14.4421 9.82288L13.5796 10.7045C13.0238 11.27 12.6308 11.7587 12.5063 12.6787C12.4487 13.0908 12.1133 13.407 11.6917 13.407H11.3946C10.8962 13.407 10.5129 12.9662 10.58 12.4679C10.6854 11.5958 11.0879 10.8195 11.6725 10.2254L12.8608 9.01788C13.2058 8.67288 13.4167 8.19371 13.4167 7.66663C13.4167 6.61246 12.5542 5.74996 11.5 5.74996C10.6662 5.74996 9.9475 6.29621 9.68875 7.04371C9.56417 7.39829 9.26708 7.65704 8.89333 7.65704H8.60583C8.05 7.65704 7.66667 7.12038 7.82 6.58371C8.28958 4.99288 9.75583 3.83329 11.5 3.83329C13.6179 3.83329 15.3333 5.54871 15.3333 7.66663C15.3333 8.50996 14.9883 9.27663 14.4421 9.82288Z" fill="#666666"/>
</svg>
