<svg width="22" height="20" viewBox="0 0 22 20" fill="none" xmlns="http://www.w3.org/2000/svg">
<path d="M21.3901 11.19C21.7301 10.75 21.6401 10.12 21.2001 9.79L11.6001 2.46C11.2401 2.19 10.7401 2.19 10.3901 2.46L5.00005 6.58V6C5.00005 5.45 4.55005 5 4.00005 5C3.45005 5 3.00005 5.45 3.00005 6V8.11L0.790053 9.79C0.350053 10.12 0.270053 10.75 0.600053 11.19C0.940053 11.63 1.56005 11.71 2.00005 11.38L3.00005 10.62V19C3.00005 19.55 3.45005 20 4.00005 20H10.0001V15C10.0001 14.45 10.4501 14 11.0001 14C11.5501 14 12.0001 14.45 12.0001 15V20H18.0001C18.5501 20 19.0001 19.55 19.0001 19V10.62L19.9901 11.38C20.4301 11.72 21.0601 11.63 21.3901 11.19ZM4.27005 4C3.53005 4 3.01005 3.2 3.37005 2.55C3.89005 1.62 4.87005 1 6.00005 1C6.38005 1 6.72005 0.78 6.89005 0.47C7.04005 0.16 7.39005 0 7.73005 0C8.47005 0 8.99005 0.8 8.63005 1.45C8.11005 2.38 7.13005 3 6.00005 3C5.62005 3 5.28005 3.22 5.11005 3.53C4.96005 3.84 4.61005 4 4.27005 4Z" fill="#797979"/>
</svg>
