<svg width="19" height="21" viewBox="0 0 19 21" fill="none" xmlns="http://www.w3.org/2000/svg">
<path d="M16.2083 0.916748H2.79167C1.72792 0.916748 0.875 1.77925 0.875 2.83341V16.2501C0.875 17.3042 1.7375 18.1667 2.79167 18.1667H6.625L8.81958 20.3613C9.19333 20.7351 9.79708 20.7351 10.1708 20.3613L12.375 18.1667H16.2083C17.2625 18.1667 18.125 17.3042 18.125 16.2501V2.83341C18.125 1.77925 17.2625 0.916748 16.2083 0.916748ZM10.4583 16.2501H8.54167V14.3334H10.4583V16.2501ZM12.4421 8.823L11.5796 9.70466C11.0237 10.2701 10.6308 10.7588 10.5062 11.6788C10.4487 12.0909 10.1133 12.4072 9.69167 12.4072H9.39458C8.89625 12.4072 8.51292 11.9663 8.58 11.468C8.68542 10.5959 9.08792 9.81966 9.6725 9.2255L10.8608 8.018C11.2058 7.673 11.4167 7.19383 11.4167 6.66675C11.4167 5.61258 10.5542 4.75008 9.5 4.75008C8.66625 4.75008 7.9475 5.29633 7.68875 6.04383C7.56417 6.39841 7.26708 6.65716 6.89333 6.65716H6.60583C6.05 6.65716 5.66667 6.1205 5.82 5.58383C6.28958 3.993 7.75583 2.83341 9.5 2.83341C11.6179 2.83341 13.3333 4.54883 13.3333 6.66675C13.3333 7.51008 12.9883 8.27675 12.4421 8.823Z" fill="black"/>
</svg>
