<svg width="16" height="16" viewBox="0 0 16 16" fill="#000" xmlns="http://www.w3.org/2000/svg">
<path d="M13.5 0.0356445C12.6716 0.0356445 12 0.707218 12 1.53564V13.5356C12 14.3641 12.6716 15.0356 13.5 15.0356H14.5C15.3284 15.0356 16 14.3641 16 13.5356V1.53564C16 0.707217 15.3284 0.0356445 14.5 0.0356445H13.5Z" fill="#797979"/>
<path d="M6 5.53564C6 4.70722 6.67157 4.03564 7.5 4.03564H8.5C9.32843 4.03564 10 4.70722 10 5.53564V13.5356C10 14.3641 9.32843 15.0356 8.5 15.0356H7.5C6.67157 15.0356 6 14.3641 6 13.5356V5.53564Z" fill="#797979"/>
<path d="M0 9.53564C0 8.70722 0.671573 8.03564 1.5 8.03564H2.5C3.32843 8.03564 4 8.70722 4 9.53564V13.5356C4 14.3641 3.32843 15.0356 2.5 15.0356H1.5C0.671573 15.0356 0 14.3641 0 13.5356V9.53564Z" fill="#797979"/>
</svg>
