<svg width="10" height="10" viewBox="0 0 10 10" fill="none" xmlns="http://www.w3.org/2000/svg">
<path d="M9.72504 0.282509C9.43254 -0.00999129 8.96004 -0.00999129 8.66754 0.282509L5.00004 3.94251L1.33254 0.275009C1.04004 -0.0174915 0.567539 -0.0174915 0.275039 0.275009C-0.0174609 0.567509 -0.0174609 1.04001 0.275039 1.33251L3.94254 5.00001L0.275039 8.66751C-0.0174609 8.96001 -0.0174609 9.43251 0.275039 9.72501C0.567539 10.0175 1.04004 10.0175 1.33254 9.72501L5.00004 6.05751L8.66754 9.72501C8.96004 10.0175 9.43254 10.0175 9.72504 9.72501C10.0175 9.43251 10.0175 8.96001 9.72504 8.66751L6.05754 5.00001L9.72504 1.33251C10.01 1.04751 10.01 0.567509 9.72504 0.282509V0.282509Z" fill="#FF6600"/>
</svg>
