<svg width="143" height="40" viewBox="0 0 143 40" fill="none" xmlns="http://www.w3.org/2000/svg">
<path d="M10.6296 8.53335C11.4399 8.53335 12.1788 8.59655 12.8461 8.72298C13.5134 8.84941 14.2046 9.00743 14.9196 9.19706L15.4916 9.33928L15.2771 13.0845H13.6326L12.9176 11.0222C12.5363 10.722 12.1152 10.5087 11.6544 10.3822C11.2096 10.24 10.574 10.1689 9.74778 10.1689C8.68323 10.1689 7.72194 10.4691 6.86394 11.0697C6.02182 11.6702 5.35449 12.5235 4.86194 13.6297C4.3694 14.72 4.12311 15.9921 4.12311 17.4459C4.12311 18.884 4.34556 20.2193 4.79044 21.4519C5.25123 22.6687 5.91856 23.6484 6.79244 24.3911C7.68223 25.118 8.74678 25.4815 9.98611 25.4815C11.7021 25.4815 12.8302 25.0785 13.3704 24.2726L14.1331 22.3052H15.5154V25.9082C15.2612 25.924 14.8402 26.0267 14.2523 26.2163C13.5055 26.4534 12.7667 26.643 12.0358 26.7852C11.3208 26.9274 10.4866 26.9985 9.53328 26.9985C7.86494 26.9985 6.37932 26.6351 5.07644 25.9082C3.77356 25.1813 2.75666 24.162 2.02578 22.8504C1.29489 21.523 0.929443 19.998 0.929443 18.2756C0.929443 16.3951 1.36639 14.7121 2.24028 13.2267C3.11416 11.7413 4.28994 10.5877 5.76761 9.76595C7.26116 8.94423 8.88182 8.53335 10.6296 8.53335ZM20.1682 25.1971V10.0978L18.3092 9.60002V8.34373L22.5038 7.84595L23.0997 8.08298L23.0758 13.3926L22.9567 15.123C23.5922 14.5857 24.3152 14.1748 25.1255 13.8904C25.9358 13.5902 26.6985 13.44 27.4135 13.44C28.478 13.44 29.2884 13.6613 29.8443 14.1037C30.4166 14.5462 30.8057 15.202 31.0125 16.0711C31.2189 16.9403 31.3143 18.1017 31.2985 19.5556V25.1971L32.9668 25.4578V26.6667H26.5078V25.4578L28.3668 25.1971V20.4089C28.3668 19.1763 28.3192 18.2282 28.2238 17.5645C28.1285 16.885 27.8981 16.3635 27.5327 16C27.1672 15.6208 26.6032 15.4311 25.8405 15.4311C24.76 15.4311 23.8464 15.6998 23.0997 16.2371V25.1971L24.5773 25.4578V26.6667H18.4522V25.4578L20.1682 25.1971ZM41.1518 13.44C42.6929 13.44 43.8846 13.7798 44.7268 14.4593C45.569 15.1388 45.9899 16.2766 45.9899 17.8726V25.4578H47.4676V26.4059C47.1816 26.5798 46.8083 26.7141 46.3474 26.8089C45.8866 26.9195 45.4337 26.9748 44.9889 26.9748C44.4169 26.9748 44.0037 26.8642 43.7496 26.643C43.4955 26.4059 43.3602 26.0267 43.3444 25.5052C42.4706 26.485 41.2391 26.9748 39.6503 26.9748C38.8399 26.9748 38.1169 26.8247 37.4814 26.5245C36.846 26.2084 36.3532 25.7739 36.0038 25.2208C35.6543 24.6677 35.4794 24.0435 35.4794 23.3482C35.4794 22.3052 35.8688 21.444 36.6473 20.7645C37.4257 20.085 38.3951 19.5951 39.5549 19.2948C40.7147 18.9788 41.8826 18.8208 43.0584 18.8208V18.1097C43.0584 17.0351 42.8121 16.2845 42.3196 15.8578C41.8271 15.4311 41.0961 15.2178 40.1269 15.2178C39.6026 15.2178 39.0068 15.3047 38.3394 15.4785C37.6721 15.6524 37.0921 15.8736 36.5996 16.1422L36.0514 14.8385C36.5916 14.3961 37.3623 14.0563 38.3633 13.8193C39.3801 13.5665 40.3096 13.44 41.1518 13.44ZM43.0584 20.243C41.8668 20.243 40.7943 20.4563 39.8409 20.883C38.9034 21.3097 38.4348 21.9891 38.4348 22.9215C38.4348 24.4543 39.2531 25.2208 40.8896 25.2208C41.2709 25.2208 41.6603 25.1417 42.0574 24.9837C42.4706 24.8257 42.7963 24.6361 43.0346 24.4148L43.0584 20.243ZM57.8646 13.3215C59.4218 13.3215 60.6692 13.8667 61.6064 14.9571C62.5598 16.0474 63.0364 17.6514 63.0364 19.7689C63.0364 21.0805 62.7346 22.2894 62.1308 23.3956C61.543 24.4859 60.7246 25.3472 59.6759 25.9793C58.6433 26.6114 57.4755 26.9274 56.1724 26.9274C55.5688 26.9274 54.9015 26.8405 54.1704 26.6667L54.2658 29.3215V31.0993L56.6014 31.36V32.5926H49.7851V31.36L51.3581 31.0756V16.4504L49.7374 15.4785V14.483L53.2648 13.44L53.8844 13.6534V15.0756C54.2181 14.6173 54.7585 14.2143 55.5051 13.8667C56.2678 13.5032 57.0543 13.3215 57.8646 13.3215ZM56.6491 15.0519C56.1409 15.0519 55.68 15.1625 55.2668 15.3837C54.8538 15.605 54.5121 15.8499 54.2419 16.1185L54.2658 24.4859C54.4248 24.7704 54.7108 24.9995 55.1238 25.1734C55.5528 25.3314 56.0455 25.4104 56.6014 25.4104C57.253 25.4104 57.8488 25.205 58.3889 24.7941C58.9293 24.3674 59.3503 23.7511 59.6521 22.9452C59.97 22.1393 60.1288 21.1753 60.1288 20.0534C60.1288 18.4415 59.8031 17.2089 59.1516 16.3556C58.5003 15.4865 57.6662 15.0519 56.6491 15.0519ZM72.4595 13.3215C73.9849 13.3215 75.1685 13.7719 76.0107 14.6726C76.8687 15.5734 77.2977 16.8376 77.2977 18.4652C77.2977 19.1605 77.242 19.8163 77.1309 20.4326H68.7177C68.7493 21.9022 69.1229 23.0479 69.8379 23.8696C70.5687 24.6914 71.6015 25.1022 72.9362 25.1022C73.524 25.1022 74.1517 25.039 74.819 24.9126C75.4864 24.7704 76.0265 24.5966 76.4397 24.3911L76.9402 25.5289C76.4316 25.9714 75.6928 26.3269 74.7237 26.5956C73.7543 26.8484 72.7932 26.9748 71.8399 26.9748C69.9013 26.959 68.3998 26.3585 67.3354 25.1734C66.2706 23.9882 65.7385 22.3763 65.7385 20.3378C65.7385 18.9946 66.0245 17.7936 66.5965 16.7348C67.1685 15.6603 67.9628 14.8227 68.9799 14.2222C69.9967 13.6217 71.1564 13.3215 72.4595 13.3215ZM71.9114 14.72C71.0373 14.72 70.3145 15.0756 69.7425 15.7867C69.1863 16.4978 68.8527 17.525 68.7415 18.8682H74.3185C74.3343 18.6943 74.3424 18.4336 74.3424 18.0859C74.3424 16.9166 74.0879 16.0948 73.5797 15.6208C73.2618 15.0203 72.7056 14.72 71.9114 14.72ZM81.9735 25.1971V16.4504L80.329 15.4785V14.483L83.8563 13.44L84.5237 13.6534V15.6208C84.7781 15.0993 85.2944 14.6094 86.0728 14.1511C86.8674 13.6771 87.5982 13.44 88.2655 13.44C88.8694 13.44 89.2588 13.4716 89.4333 13.5348V16.3793C88.8613 16.0948 88.1782 15.9526 87.3837 15.9526C86.3988 15.9526 85.5804 16.1659 84.9288 16.5926V25.1497L88.0033 25.4578V26.6667H80.2575V25.4578L81.9735 25.1971ZM98.1566 13.3215C100.127 13.3215 101.628 13.922 102.661 15.123C103.694 16.3082 104.21 17.8963 104.21 19.8874C104.21 21.278 103.932 22.5106 103.376 23.5852C102.82 24.644 102.057 25.4736 101.088 26.0741C100.119 26.6588 99.0227 26.9511 97.7991 26.9511C95.7495 26.9511 94.2003 26.3269 93.1516 25.0785C92.103 23.8143 91.5786 22.1709 91.5786 20.1482C91.5786 18.7576 91.8727 17.5487 92.4605 16.5215C93.0482 15.4943 93.8348 14.7042 94.82 14.1511C95.821 13.598 96.9331 13.3215 98.1566 13.3215ZM97.9183 14.7437C95.7733 14.7437 94.7008 16.4346 94.7008 19.8163C94.7008 21.365 94.971 22.6924 95.5111 23.7985C96.0512 24.9047 96.8538 25.4657 97.9183 25.4815C99.0781 25.4973 99.8965 25.039 100.373 24.1067C100.866 23.1743 101.112 21.839 101.112 20.1008C101.112 18.5047 100.85 17.2168 100.325 16.2371C99.8169 15.2415 99.0146 14.7437 97.9183 14.7437ZM108.813 25.2208V16.4504L107.193 15.4785V14.483L110.744 13.44L111.387 13.6534V15.3363C111.991 14.799 112.754 14.3487 113.675 13.9852C114.613 13.6217 115.487 13.44 116.297 13.44C117.664 13.44 118.617 13.8667 119.157 14.72C119.713 15.5734 119.991 16.9324 119.991 18.7971V25.2208L121.755 25.4578V26.6667H115.32V25.4578L117.06 25.1971V19.2474C117.06 18.3151 116.996 17.5882 116.869 17.0667C116.742 16.5294 116.504 16.1343 116.154 15.8815C115.805 15.6287 115.296 15.5022 114.629 15.5022C114.216 15.5022 113.739 15.5813 113.199 15.7393C112.674 15.8973 112.198 16.1343 111.769 16.4504V25.1971L113.389 25.4578V26.6667H107.288V25.4578L108.813 25.2208ZM130.772 13.3215C132.297 13.3215 133.481 13.7719 134.323 14.6726C135.181 15.5734 135.61 16.8376 135.61 18.4652C135.61 19.1605 135.554 19.8163 135.443 20.4326H127.03C127.062 21.9022 127.435 23.0479 128.15 23.8696C128.881 24.6914 129.914 25.1022 131.249 25.1022C131.836 25.1022 132.464 25.039 133.131 24.9126C133.799 24.7704 134.339 24.5966 134.752 24.3911L135.253 25.5289C134.744 25.9714 134.005 26.3269 133.036 26.5956C132.067 26.8484 131.106 26.9748 130.152 26.9748C128.214 26.959 126.712 26.3585 125.648 25.1734C124.583 23.9882 124.051 22.3763 124.051 20.3378C124.051 18.9946 124.337 17.7936 124.909 16.7348C125.481 15.6603 126.275 14.8227 127.292 14.2222C128.309 13.6217 129.469 13.3215 130.772 13.3215ZM130.224 14.72C129.35 14.72 128.627 15.0756 128.055 15.7867C127.499 16.4978 127.165 17.525 127.054 18.8682H132.631C132.647 18.6943 132.655 18.4336 132.655 18.0859C132.655 16.9166 132.401 16.0948 131.892 15.6208C131.574 15.0203 131.018 14.72 130.224 14.72Z" fill="#FF6600"/>
<path d="M66.3752 31.2238H66.7619L68.6953 35.8519H68.2103L67.6074 34.4048H65.5166L64.9201 35.8519H64.4286L66.3752 31.2238ZM67.5025 34.0463L66.5652 31.7583L65.6149 34.0463H67.5025ZM72.2176 35.9171C71.8854 35.9171 71.5905 35.8368 71.3328 35.6759C71.0751 35.5109 70.8719 35.2958 70.7233 35.0306C70.5746 34.7612 70.5004 34.4655 70.5004 34.1441C70.5004 33.8226 70.5725 33.5313 70.7167 33.2706C70.8609 33.0054 71.062 32.7947 71.3197 32.6383C71.5774 32.4774 71.8747 32.3971 72.2111 32.3971C72.5301 32.3971 72.8096 32.4709 73.05 32.6187C73.2946 32.7621 73.4781 32.9577 73.6005 33.2054L73.168 33.3423C73.0717 33.1683 72.9365 33.0338 72.7616 32.9381C72.5912 32.8383 72.4011 32.7882 72.1914 32.7882C71.9599 32.7882 71.7502 32.8469 71.5622 32.9642C71.3787 33.0815 71.23 33.2445 71.1165 33.4531C71.0072 33.6572 70.9527 33.8878 70.9527 34.1441C70.9527 34.4003 71.0096 34.6329 71.1231 34.8415C71.2366 35.0501 71.3873 35.2175 71.5753 35.3435C71.7633 35.4652 71.9706 35.526 72.198 35.526C72.3466 35.526 72.4908 35.4999 72.6305 35.4478C72.7703 35.3956 72.8906 35.326 72.991 35.2392C73.0914 35.1479 73.1593 35.0501 73.1942 34.9458L73.6333 35.0762C73.5722 35.2371 73.4715 35.3826 73.3318 35.5129C73.1921 35.6389 73.0259 35.739 72.8337 35.8128C72.6416 35.8824 72.436 35.9171 72.2176 35.9171ZM75.7566 35.9171C75.4289 35.9171 75.136 35.8368 74.8783 35.6759C74.6248 35.515 74.4261 35.3023 74.2819 35.0371C74.1377 34.7678 74.0656 34.4765 74.0656 34.1636C74.0656 33.8463 74.1377 33.5553 74.2819 33.2901C74.4305 33.0208 74.6313 32.8057 74.8849 32.6448C75.1426 32.4798 75.4333 32.3971 75.7566 32.3971C76.0843 32.3971 76.3747 32.4798 76.6283 32.6448C76.886 32.8057 77.0871 33.0208 77.2313 33.2901C77.3799 33.5553 77.4541 33.8463 77.4541 34.1636C77.4541 34.4765 77.382 34.7678 77.2378 35.0371C77.0936 35.3023 76.8925 35.515 76.6348 35.6759C76.3813 35.8368 76.0887 35.9171 75.7566 35.9171ZM74.5178 34.1701C74.5178 34.4223 74.5723 34.6525 74.6817 34.8611C74.7952 35.0652 74.9459 35.2282 75.1339 35.35C75.3219 35.4673 75.5293 35.526 75.7566 35.526C75.9839 35.526 76.1912 35.4652 76.3792 35.3435C76.5672 35.2217 76.7179 35.0566 76.8315 34.8481C76.945 34.6395 77.0019 34.4092 77.0019 34.1571C77.0019 33.9049 76.945 33.6747 76.8315 33.4661C76.7179 33.2575 76.5672 33.0925 76.3792 32.9707C76.1912 32.8489 75.9839 32.7882 75.7566 32.7882C75.5337 32.7882 75.3285 32.8513 75.1405 32.9772C74.9525 33.099 74.8017 33.2641 74.6882 33.4726C74.5747 33.6812 74.5178 33.9138 74.5178 34.1701ZM83.279 35.8519H82.8333V33.955C82.8333 33.5639 82.7698 33.275 82.6432 33.088C82.5166 32.8969 82.3286 32.8012 82.0796 32.8012C81.8174 32.8012 81.5859 32.8925 81.3848 33.075C81.1837 33.2575 81.0419 33.4922 80.9588 33.779V35.8519H80.5131V33.955C80.5131 33.5553 80.4497 33.2641 80.323 33.0815C80.2006 32.8946 80.015 32.8012 79.7659 32.8012C79.5082 32.8012 79.2765 32.8904 79.0712 33.0685C78.8701 33.2466 78.7283 33.4812 78.6452 33.7725V35.8519H78.1995V32.4558H78.6058V33.2249C78.7456 32.9642 78.9291 32.7621 79.1564 32.6187C79.3837 32.4709 79.6349 32.3971 79.9101 32.3971C80.194 32.3971 80.4234 32.4798 80.5983 32.6448C80.7732 32.8057 80.8801 33.0143 80.9195 33.2706C81.2341 32.6883 81.6732 32.3971 82.2369 32.3971C82.6215 32.3971 82.8902 32.5319 83.043 32.8012C83.2003 33.0664 83.279 33.4205 83.279 33.8638V35.8519ZM85.9659 35.9171C85.6817 35.9171 85.4261 35.8433 85.199 35.6955C84.9762 35.5476 84.7992 35.3651 84.6681 35.1479V37.2403H84.2225V32.4558H84.6223V33.1141C84.7575 32.9011 84.9369 32.7295 85.1597 32.5992C85.3867 32.4643 85.6316 32.3971 85.8938 32.3971C86.1297 32.3971 86.346 32.4472 86.5426 32.547C86.7393 32.6427 86.9097 32.7731 87.0539 32.9381C87.2022 33.1032 87.316 33.2922 87.3947 33.5052C87.4733 33.7138 87.5127 33.931 87.5127 34.1571C87.5127 34.4744 87.4471 34.7678 87.316 35.0371C87.1891 35.3023 87.008 35.515 86.772 35.6759C86.5403 35.8368 86.2715 35.9171 85.9659 35.9171ZM85.8414 35.526C86.0904 35.526 86.3043 35.4608 86.4837 35.3304C86.6672 35.1956 86.809 35.0241 86.9097 34.8155C87.0101 34.6069 87.0604 34.3873 87.0604 34.1571C87.0604 33.9138 87.0035 33.6878 86.89 33.4792C86.7762 33.2706 86.6234 33.1032 86.4312 32.9772C86.2432 32.8513 86.029 32.7882 85.7889 32.7882C85.6403 32.7882 85.483 32.8273 85.317 32.9055C85.1552 32.9793 85.0111 33.0815 84.8844 33.2119C84.762 33.3378 84.6899 33.4771 84.6681 33.6291V34.6721C84.7685 34.9112 84.9259 35.1132 85.1401 35.2783C85.354 35.4433 85.5878 35.526 85.8414 35.526ZM88.2872 31.0934H88.7329V35.0827C88.7329 35.2522 88.7612 35.363 88.8181 35.4152C88.8792 35.4673 88.9558 35.4934 89.0475 35.4934C89.1262 35.4934 89.2048 35.4848 89.2835 35.4673C89.3663 35.4498 89.4342 35.4326 89.4867 35.4152L89.5653 35.7737C89.4822 35.8083 89.3794 35.8368 89.2573 35.8584C89.1393 35.8801 89.0365 35.891 88.9492 35.891C88.7481 35.891 88.5863 35.8323 88.4642 35.715C88.3462 35.5977 88.2872 35.4368 88.2872 35.2326V31.0934ZM91.528 35.9171C91.2003 35.9171 90.9074 35.8368 90.6497 35.6759C90.392 35.515 90.1888 35.2999 90.0402 35.0306C89.8915 34.7612 89.8173 34.4655 89.8173 34.1441C89.8173 33.8267 89.8894 33.5358 90.0336 33.2706C90.1823 33.0054 90.3855 32.7947 90.6432 32.6383C90.9009 32.4774 91.1937 32.3971 91.5214 32.3971C91.8578 32.3971 92.1527 32.4774 92.4062 32.6383C92.6598 32.7992 92.8564 33.0119 92.9961 33.2771C93.1403 33.5378 93.2124 33.8246 93.2124 34.1375C93.2124 34.2072 93.2103 34.2658 93.2059 34.3135H90.2827C90.3044 34.5568 90.3745 34.7743 90.4924 34.9654C90.6104 35.1523 90.7611 35.3023 90.9447 35.4152C91.1282 35.5239 91.3293 35.5781 91.5476 35.5781C91.7705 35.5781 91.9802 35.5215 92.1768 35.4086C92.3735 35.2958 92.5132 35.1479 92.5963 34.9654L92.983 35.0697C92.913 35.2347 92.804 35.3826 92.6553 35.5129C92.5111 35.6389 92.3428 35.739 92.1506 35.8128C91.9585 35.8824 91.7508 35.9171 91.528 35.9171ZM90.2696 33.9941H92.7929C92.7754 33.7509 92.7077 33.5358 92.5898 33.3488C92.4718 33.1577 92.321 33.0098 92.1375 32.9055C91.954 32.7968 91.7508 32.7426 91.528 32.7426C91.3051 32.7426 91.102 32.7968 90.9184 32.9055C90.7349 33.0098 90.5842 33.1577 90.4662 33.3488C90.3527 33.5358 90.2872 33.7509 90.2696 33.9941ZM95.5067 35.6889C95.4542 35.7106 95.358 35.7497 95.2183 35.8063C95.0783 35.8629 94.9168 35.891 94.7333 35.891C94.5408 35.891 94.3728 35.8368 94.2286 35.7281C94.0844 35.6193 94.0123 35.4563 94.0123 35.2392V32.8078H93.5404V32.4558H94.0123V31.3085H94.458V32.4558H95.2445V32.8078H94.458V35.1153C94.4666 35.2412 94.5104 35.3349 94.5891 35.3956C94.6719 35.4522 94.766 35.4803 94.8709 35.4803C94.993 35.4803 95.1024 35.4608 95.1986 35.4217C95.299 35.3781 95.3625 35.3479 95.3887 35.3304L95.5067 35.6889ZM97.4804 35.9171C97.1526 35.9171 96.8601 35.8368 96.6021 35.6759C96.3444 35.515 96.1412 35.2999 95.9926 35.0306C95.8442 34.7612 95.7697 34.4655 95.7697 34.1441C95.7697 33.8267 95.8418 33.5358 95.986 33.2706C96.1347 33.0054 96.3378 32.7947 96.5955 32.6383C96.8535 32.4774 97.1461 32.3971 97.4738 32.3971C97.8104 32.3971 98.1054 32.4774 98.3586 32.6383C98.6121 32.7992 98.8088 33.0119 98.9485 33.2771C99.0927 33.5378 99.1648 33.8246 99.1648 34.1375C99.1648 34.2072 99.1627 34.2658 99.1582 34.3135H96.2351C96.2571 34.5568 96.3268 34.7743 96.4448 34.9654C96.5628 35.1523 96.7135 35.3023 96.897 35.4152C97.0806 35.5239 97.2817 35.5781 97.5 35.5781C97.7229 35.5781 97.9326 35.5215 98.1292 35.4086C98.3258 35.2958 98.4659 35.1479 98.5487 34.9654L98.9354 35.0697C98.8657 35.2347 98.7563 35.3826 98.6077 35.5129C98.4635 35.6389 98.2955 35.739 98.103 35.8128C97.9108 35.8824 97.7032 35.9171 97.4804 35.9171ZM96.222 33.9941H98.7453C98.728 33.7509 98.6601 33.5358 98.5421 33.3488C98.4242 33.1577 98.2734 33.0098 98.0899 32.9055C97.9064 32.7968 97.7032 32.7426 97.4804 32.7426C97.2575 32.7426 97.0543 32.7968 96.8708 32.9055C96.6873 33.0098 96.5366 33.1577 96.4186 33.3488C96.3051 33.5358 96.2395 33.7509 96.222 33.9941ZM103.004 35.9171C102.672 35.9171 102.377 35.8368 102.12 35.6759C101.862 35.5109 101.659 35.2958 101.51 35.0306C101.361 34.7612 101.287 34.4655 101.287 34.1441C101.287 33.8226 101.359 33.5313 101.503 33.2706C101.648 33.0054 101.849 32.7947 102.106 32.6383C102.364 32.4774 102.661 32.3971 102.998 32.3971C103.317 32.3971 103.596 32.4709 103.837 32.6187C104.081 32.7621 104.265 32.9577 104.387 33.2054L103.955 33.3423C103.858 33.1683 103.723 33.0338 103.548 32.9381C103.378 32.8383 103.188 32.7882 102.978 32.7882C102.747 32.7882 102.537 32.8469 102.349 32.9642C102.165 33.0815 102.017 33.2445 101.903 33.4531C101.794 33.6572 101.739 33.8878 101.739 34.1441C101.739 34.4003 101.796 34.6329 101.91 34.8415C102.023 35.0501 102.174 35.2175 102.362 35.3435C102.55 35.4652 102.757 35.526 102.985 35.526C103.133 35.526 103.278 35.4999 103.417 35.4478C103.557 35.3956 103.677 35.326 103.778 35.2392C103.878 35.1479 103.946 35.0501 103.981 34.9458L104.42 35.0762C104.359 35.2371 104.258 35.3826 104.119 35.5129C103.979 35.6389 103.813 35.739 103.62 35.8128C103.428 35.8824 103.223 35.9171 103.004 35.9171ZM106.543 35.9171C106.216 35.9171 105.923 35.8368 105.665 35.6759C105.411 35.515 105.213 35.3023 105.069 35.0371C104.924 34.7678 104.852 34.4765 104.852 34.1636C104.852 33.8463 104.924 33.5553 105.069 33.2901C105.217 33.0208 105.418 32.8057 105.672 32.6448C105.929 32.4798 106.22 32.3971 106.543 32.3971C106.871 32.3971 107.161 32.4798 107.415 32.6448C107.673 32.8057 107.874 33.0208 108.018 33.2901C108.166 33.5553 108.241 33.8463 108.241 34.1636C108.241 34.4765 108.169 34.7678 108.025 35.0371C107.88 35.3023 107.679 35.515 107.422 35.6759C107.168 35.8368 106.875 35.9171 106.543 35.9171ZM105.305 34.1701C105.305 34.4223 105.359 34.6525 105.468 34.8611C105.582 35.0652 105.733 35.2282 105.921 35.35C106.108 35.4673 106.316 35.526 106.543 35.526C106.77 35.526 106.978 35.4652 107.166 35.3435C107.354 35.2217 107.504 35.0566 107.618 34.8481C107.732 34.6395 107.789 34.4092 107.789 34.1571C107.789 33.9049 107.732 33.6747 107.618 33.4661C107.504 33.2575 107.354 33.0925 107.166 32.9707C106.978 32.8489 106.77 32.7882 106.543 32.7882C106.32 32.7882 106.115 32.8513 105.927 32.9772C105.739 33.099 105.588 33.2641 105.475 33.4726C105.361 33.6812 105.305 33.9138 105.305 34.1701ZM109.006 31.0934H109.452V35.0827C109.452 35.2522 109.48 35.363 109.537 35.4152C109.598 35.4673 109.674 35.4934 109.766 35.4934C109.845 35.4934 109.923 35.4848 110.002 35.4673C110.085 35.4498 110.153 35.4326 110.205 35.4152L110.284 35.7737C110.201 35.8083 110.098 35.8368 109.976 35.8584C109.858 35.8801 109.755 35.891 109.668 35.891C109.467 35.891 109.305 35.8323 109.183 35.715C109.065 35.5977 109.006 35.4368 109.006 35.2326V31.0934ZM110.792 31.0934H111.237V35.0827C111.237 35.2522 111.266 35.363 111.322 35.4152C111.384 35.4673 111.46 35.4934 111.552 35.4934C111.631 35.4934 111.709 35.4848 111.788 35.4673C111.871 35.4498 111.939 35.4326 111.991 35.4152L112.07 35.7737C111.987 35.8083 111.884 35.8368 111.762 35.8584C111.644 35.8801 111.541 35.891 111.454 35.891C111.252 35.891 111.091 35.8323 110.969 35.715C110.851 35.5977 110.792 35.4368 110.792 35.2326V31.0934ZM114.032 35.9171C113.705 35.9171 113.412 35.8368 113.154 35.6759C112.896 35.515 112.693 35.2999 112.545 35.0306C112.396 34.7612 112.322 34.4655 112.322 34.1441C112.322 33.8267 112.394 33.5358 112.538 33.2706C112.687 33.0054 112.89 32.7947 113.147 32.6383C113.405 32.4774 113.698 32.3971 114.026 32.3971C114.362 32.3971 114.657 32.4774 114.911 32.6383C115.164 32.7992 115.361 33.0119 115.5 33.2771C115.645 33.5378 115.717 33.8246 115.717 34.1375C115.717 34.2072 115.715 34.2658 115.71 34.3135H112.787C112.809 34.5568 112.879 34.7743 112.997 34.9654C113.115 35.1523 113.265 35.3023 113.449 35.4152C113.633 35.5239 113.834 35.5781 114.052 35.5781C114.275 35.5781 114.485 35.5215 114.681 35.4086C114.878 35.2958 115.018 35.1479 115.101 34.9654L115.487 35.0697C115.417 35.2347 115.308 35.3826 115.16 35.5129C115.015 35.6389 114.847 35.739 114.655 35.8128C114.463 35.8824 114.255 35.9171 114.032 35.9171ZM112.774 33.9941H115.297C115.28 33.7509 115.212 33.5358 115.094 33.3488C114.976 33.1577 114.825 33.0098 114.642 32.9055C114.458 32.7968 114.255 32.7426 114.032 32.7426C113.809 32.7426 113.606 32.7968 113.423 32.9055C113.239 33.0098 113.089 33.1577 112.971 33.3488C112.857 33.5358 112.791 33.7509 112.774 33.9941ZM117.774 35.8975C117.538 35.8975 117.322 35.8498 117.125 35.7541C116.933 35.6584 116.765 35.5304 116.621 35.3695C116.481 35.2045 116.372 35.0175 116.293 34.8089C116.214 34.6003 116.175 34.3852 116.175 34.1636C116.175 33.8463 116.243 33.5553 116.378 33.2901C116.514 33.0208 116.699 32.8057 116.935 32.6448C117.176 32.4798 117.451 32.3971 117.761 32.3971C118.054 32.3971 118.307 32.4709 118.521 32.6187C118.74 32.7666 118.923 32.9491 119.072 33.1663V32.4558H119.472V35.8649C119.472 36.1823 119.395 36.4472 119.242 36.6602C119.089 36.8732 118.886 37.0338 118.633 37.1426C118.379 37.2513 118.102 37.3055 117.8 37.3055C117.407 37.3055 117.09 37.2359 116.85 37.0969C116.614 36.958 116.42 36.771 116.267 36.5363L116.542 36.3212C116.678 36.5343 116.857 36.6928 117.079 36.7971C117.307 36.9014 117.547 36.9535 117.8 36.9535C118.023 36.9535 118.226 36.9123 118.41 36.8297C118.598 36.7515 118.746 36.6321 118.856 36.4712C118.969 36.3103 119.026 36.1082 119.026 35.8649V35.1935C118.895 35.4066 118.716 35.5781 118.489 35.7085C118.261 35.8344 118.023 35.8975 117.774 35.8975ZM117.899 35.526C118.078 35.526 118.248 35.4848 118.41 35.4021C118.572 35.3195 118.707 35.2152 118.816 35.0892C118.93 34.9589 119 34.824 119.026 34.6851V33.6356C118.96 33.4706 118.867 33.3248 118.744 33.1989C118.622 33.0685 118.482 32.9686 118.325 32.899C118.167 32.8252 118.008 32.7882 117.846 32.7882C117.593 32.7882 117.374 32.8578 117.191 32.9968C117.012 33.1316 116.872 33.3052 116.771 33.5183C116.675 33.7269 116.627 33.944 116.627 34.1701C116.627 34.4134 116.684 34.6395 116.798 34.8481C116.911 35.0522 117.064 35.2175 117.256 35.3435C117.449 35.4652 117.663 35.526 117.899 35.526ZM121.931 35.9171C121.603 35.9171 121.31 35.8368 121.052 35.6759C120.794 35.515 120.591 35.2999 120.443 35.0306C120.294 34.7612 120.22 34.4655 120.22 34.1441C120.22 33.8267 120.292 33.5358 120.436 33.2706C120.585 33.0054 120.788 32.7947 121.046 32.6383C121.304 32.4774 121.596 32.3971 121.924 32.3971C122.26 32.3971 122.555 32.4774 122.809 32.6383C123.062 32.7992 123.259 33.0119 123.399 33.2771C123.543 33.5378 123.615 33.8246 123.615 34.1375C123.615 34.2072 123.613 34.2658 123.609 34.3135H120.685C120.707 34.5568 120.777 34.7743 120.895 34.9654C121.013 35.1523 121.164 35.3023 121.347 35.4152C121.531 35.5239 121.732 35.5781 121.95 35.5781C122.173 35.5781 122.383 35.5215 122.58 35.4086C122.776 35.2958 122.916 35.1479 122.999 34.9654L123.386 35.0697C123.316 35.2347 123.206 35.3826 123.058 35.5129C122.914 35.6389 122.745 35.739 122.553 35.8128C122.361 35.8824 122.154 35.9171 121.931 35.9171ZM120.672 33.9941H123.196C123.178 33.7509 123.11 33.5358 122.992 33.3488C122.874 33.1577 122.724 33.0098 122.54 32.9055C122.357 32.7968 122.154 32.7426 121.931 32.7426C121.708 32.7426 121.505 32.7968 121.321 32.9055C121.138 33.0098 120.987 33.1577 120.869 33.3488C120.755 33.5358 120.69 33.7509 120.672 33.9941ZM127.343 35.8975C127.107 35.8975 126.891 35.8498 126.694 35.7541C126.502 35.6584 126.334 35.5304 126.189 35.3695C126.05 35.2045 125.94 35.0175 125.862 34.8089C125.783 34.6003 125.744 34.3852 125.744 34.1636C125.744 33.8463 125.812 33.5553 125.947 33.2901C126.082 33.0208 126.268 32.8057 126.504 32.6448C126.744 32.4798 127.02 32.3971 127.33 32.3971C127.623 32.3971 127.876 32.4709 128.09 32.6187C128.309 32.7666 128.492 32.9491 128.641 33.1663V32.4558H129.04V35.8649C129.04 36.1823 128.964 36.4472 128.811 36.6602C128.658 36.8732 128.455 37.0338 128.202 37.1426C127.948 37.2513 127.671 37.3055 127.369 37.3055C126.976 37.3055 126.659 37.2359 126.419 37.0969C126.183 36.958 125.989 36.771 125.835 36.5363L126.111 36.3212C126.246 36.5343 126.425 36.6928 126.648 36.7971C126.875 36.9014 127.116 36.9535 127.369 36.9535C127.592 36.9535 127.795 36.9123 127.979 36.8297C128.167 36.7515 128.315 36.6321 128.424 36.4712C128.538 36.3103 128.595 36.1082 128.595 35.8649V35.1935C128.464 35.4066 128.285 35.5781 128.057 35.7085C127.83 35.8344 127.592 35.8975 127.343 35.8975ZM127.467 35.526C127.647 35.526 127.817 35.4848 127.979 35.4021C128.14 35.3195 128.276 35.2152 128.385 35.0892C128.499 34.9589 128.569 34.824 128.595 34.6851V33.6356C128.529 33.4706 128.435 33.3248 128.313 33.1989C128.191 33.0685 128.051 32.9686 127.893 32.899C127.736 32.8252 127.577 32.7882 127.415 32.7882C127.162 32.7882 126.943 32.8578 126.76 32.9968C126.581 33.1316 126.441 33.3052 126.34 33.5183C126.244 33.7269 126.196 33.944 126.196 34.1701C126.196 34.4134 126.253 34.6395 126.366 34.8481C126.48 35.0522 126.633 35.2175 126.825 35.3435C127.018 35.4652 127.232 35.526 127.467 35.526ZM129.992 34.4504V32.4558H130.438V34.3722C130.438 35.1414 130.702 35.526 131.231 35.526C131.493 35.526 131.738 35.4412 131.965 35.2718C132.196 35.1023 132.363 34.8762 132.463 34.5938V32.4558H132.909V35.3174C132.909 35.4347 132.961 35.4955 133.066 35.4999V35.8519C133.013 35.8605 132.972 35.8649 132.941 35.8649C132.915 35.8649 132.887 35.8649 132.856 35.8649C132.764 35.8563 132.686 35.8214 132.62 35.7606C132.559 35.6999 132.528 35.6258 132.528 35.539L132.515 35.0827C132.367 35.3479 132.164 35.5541 131.906 35.702C131.652 35.8454 131.377 35.9171 131.08 35.9171C130.355 35.9171 129.992 35.4282 129.992 34.4504ZM133.916 31.7452V31.0934H134.362V31.7452H133.916ZM133.916 35.8519V32.4558H134.362V35.8519H133.916ZM135.114 34.1636C135.114 33.8421 135.18 33.5488 135.311 33.2836C135.446 33.0143 135.632 32.7992 135.868 32.6383C136.104 32.4774 136.372 32.3971 136.674 32.3971C136.958 32.3971 137.211 32.4732 137.434 32.6252C137.662 32.7731 137.839 32.9532 137.965 33.1663V31.0934H138.411V35.3174C138.411 35.4347 138.463 35.4955 138.568 35.4999V35.8519C138.481 35.8649 138.413 35.8694 138.365 35.8649C138.269 35.8605 138.186 35.8258 138.116 35.7606C138.05 35.691 138.018 35.6128 138.018 35.526V35.1935C137.882 35.4152 137.699 35.5912 137.467 35.7215C137.236 35.8519 136.995 35.9171 136.746 35.9171C136.51 35.9171 136.292 35.8694 136.091 35.7737C135.89 35.678 135.715 35.5476 135.566 35.3826C135.422 35.2175 135.311 35.0306 135.232 34.822C135.153 34.6089 135.114 34.3897 135.114 34.1636ZM137.965 34.6851V33.6356C137.909 33.4792 137.817 33.3378 137.69 33.2119C137.563 33.0815 137.419 32.9793 137.257 32.9055C137.1 32.8273 136.943 32.7882 136.785 32.7882C136.541 32.7882 136.327 32.8555 136.143 32.9903C135.964 33.1206 135.824 33.2922 135.724 33.5052C135.623 33.7138 135.573 33.9334 135.573 34.1636C135.573 34.4069 135.628 34.6329 135.737 34.8415C135.851 35.0501 136.003 35.2175 136.196 35.3435C136.388 35.4652 136.604 35.526 136.844 35.526C136.993 35.526 137.148 35.4889 137.31 35.4152C137.476 35.3369 137.62 35.2347 137.742 35.1088C137.869 34.9829 137.943 34.8415 137.965 34.6851ZM140.895 35.9171C140.568 35.9171 140.275 35.8368 140.017 35.6759C139.76 35.515 139.556 35.2999 139.408 35.0306C139.259 34.7612 139.185 34.4655 139.185 34.1441C139.185 33.8267 139.257 33.5358 139.401 33.2706C139.55 33.0054 139.753 32.7947 140.011 32.6383C140.268 32.4774 140.561 32.3971 140.889 32.3971C141.225 32.3971 141.52 32.4774 141.774 32.6383C142.027 32.7992 142.224 33.0119 142.364 33.2771C142.508 33.5378 142.58 33.8246 142.58 34.1375C142.58 34.2072 142.578 34.2658 142.573 34.3135H139.65C139.672 34.5568 139.742 34.7743 139.86 34.9654C139.978 35.1523 140.129 35.3023 140.312 35.4152C140.496 35.5239 140.697 35.5781 140.915 35.5781C141.138 35.5781 141.348 35.5215 141.544 35.4086C141.741 35.2958 141.881 35.1479 141.964 34.9654L142.35 35.0697C142.28 35.2347 142.171 35.3826 142.023 35.5129C141.879 35.6389 141.71 35.739 141.518 35.8128C141.326 35.8824 141.118 35.9171 140.895 35.9171ZM139.637 33.9941H142.16C142.143 33.7509 142.075 33.5358 141.957 33.3488C141.839 33.1577 141.689 33.0098 141.505 32.9055C141.321 32.7968 141.118 32.7426 140.895 32.7426C140.673 32.7426 140.469 32.7968 140.286 32.9055C140.102 33.0098 139.952 33.1577 139.834 33.3488C139.72 33.5358 139.655 33.7509 139.637 33.9941Z" fill="black"/>
</svg>
