<svg width="25" height="24" viewBox="0 0 25 24" fill="none" xmlns="http://www.w3.org/2000/svg">
<path d="M12.8117 5.99995C16.6017 5.99995 19.9817 8.12995 21.6317 11.5C21.0417 12.72 20.2117 13.77 19.2217 14.62L20.6317 16.03C22.0217 14.8 23.1217 13.26 23.8117 11.5C22.0817 7.10995 17.8117 3.99995 12.8117 3.99995C11.5417 3.99995 10.3217 4.19995 9.17171 4.56995L10.8217 6.21995C11.4717 6.08995 12.1317 5.99995 12.8117 5.99995ZM11.7417 7.13995L13.8117 9.20995C14.3817 9.45995 14.8417 9.91995 15.0917 10.49L17.1617 12.56C17.2417 12.22 17.3017 11.86 17.3017 11.49C17.3117 9.00995 15.2917 6.99995 12.8117 6.99995C12.4417 6.99995 12.0917 7.04995 11.7417 7.13995ZM2.82171 3.86995L5.50171 6.54995C3.87171 7.82995 2.58171 9.52995 1.81171 11.5C3.54171 15.89 7.81171 19 12.8117 19C14.3317 19 15.7917 18.71 17.1317 18.18L20.5517 21.6L21.9617 20.19L4.23171 2.44995L2.82171 3.86995ZM10.3217 11.37L12.9317 13.98C12.8917 13.99 12.8517 14 12.8117 14C11.4317 14 10.3117 12.88 10.3117 11.5C10.3117 11.45 10.3217 11.42 10.3217 11.37ZM6.92171 7.96995L8.67171 9.71995C8.44171 10.27 8.31171 10.87 8.31171 11.5C8.31171 13.98 10.3317 16 12.8117 16C13.4417 16 14.0417 15.87 14.5817 15.64L15.5617 16.62C14.6817 16.86 13.7617 17 12.8117 17C9.02171 17 5.64171 14.87 3.99171 11.5C4.69171 10.07 5.71171 8.88995 6.92171 7.96995Z" fill="#666666"/>
</svg>
