<svg width="480" height="135" viewBox="0 0 480 135" fill="none" xmlns="http://www.w3.org/2000/svg">
<path d="M35.68 28.8C38.4 28.8 40.88 29.0133 43.12 29.44C45.36 29.8667 47.68 30.4 50.08 31.04L52 31.52L51.28 44.16H45.76L43.36 37.2C42.08 36.1867 40.6667 35.4667 39.12 35.04C37.6267 34.56 35.4933 34.32 32.72 34.32C29.1467 34.32 25.92 35.3333 23.04 37.36C20.2133 39.3867 17.9733 42.2667 16.32 46C14.6667 49.68 13.84 53.9733 13.84 58.88C13.84 63.7333 14.5867 68.24 16.08 72.4C17.6267 76.5067 19.8667 79.8133 22.8 82.32C25.7867 84.7733 29.36 86 33.52 86C39.28 86 43.0667 84.64 44.88 81.92L47.44 75.28H52.08V87.44C51.2267 87.4933 49.8133 87.84 47.84 88.48C45.3333 89.28 42.8533 89.92 40.4 90.4C38 90.88 35.2 91.12 32 91.12C26.4 91.12 21.4133 89.8933 17.04 87.44C12.6667 84.9867 9.25333 81.5467 6.8 77.12C4.34667 72.64 3.12 67.4933 3.12 61.68C3.12 55.3333 4.58667 49.6533 7.52 44.64C10.4533 39.6267 14.4 35.7333 19.36 32.96C24.3733 30.1867 29.8133 28.8 35.68 28.8ZM67.6975 85.04V34.08L61.4575 32.4V28.16L75.5375 26.48L77.5375 27.28L77.4575 45.2L77.0575 51.04C79.1908 49.2267 81.6175 47.84 84.3375 46.88C87.0575 45.8667 89.6175 45.36 92.0175 45.36C95.5908 45.36 98.3108 46.1067 100.177 47.6C102.098 49.0933 103.404 51.3067 104.098 54.24C104.791 57.1733 105.111 61.0933 105.058 66V85.04L110.658 85.92V90H88.9775V85.92L95.2175 85.04V68.88C95.2175 64.72 95.0575 61.52 94.7375 59.28C94.4175 56.9867 93.6442 55.2267 92.4175 54C91.1908 52.72 89.2975 52.08 86.7375 52.08C83.1108 52.08 80.0442 52.9867 77.5375 54.8V85.04L82.4975 85.92V90H61.9375V85.92L67.6975 85.04ZM138.132 45.36C143.305 45.36 147.305 46.5067 150.132 48.8C152.959 51.0933 154.372 54.9333 154.372 60.32V85.92H159.332V89.12C158.372 89.7067 157.119 90.16 155.572 90.48C154.025 90.8533 152.505 91.04 151.012 91.04C149.092 91.04 147.705 90.6667 146.852 89.92C145.999 89.12 145.545 87.84 145.492 86.08C142.559 89.3867 138.425 91.04 133.092 91.04C130.372 91.04 127.945 90.5333 125.812 89.52C123.679 88.4533 122.025 86.9867 120.852 85.12C119.679 83.2533 119.092 81.1467 119.092 78.8C119.092 75.28 120.399 72.3733 123.012 70.08C125.625 67.7867 128.879 66.1333 132.772 65.12C136.665 64.0533 140.585 63.52 144.532 63.52V61.12C144.532 57.4933 143.705 54.96 142.052 53.52C140.399 52.08 137.945 51.36 134.692 51.36C132.932 51.36 130.932 51.6533 128.692 52.24C126.452 52.8267 124.505 53.5733 122.852 54.48L121.012 50.08C122.825 48.5867 125.412 47.44 128.772 46.64C132.185 45.7867 135.305 45.36 138.132 45.36ZM144.532 68.32C140.532 68.32 136.932 69.04 133.732 70.48C130.585 71.92 129.012 74.2133 129.012 77.36C129.012 82.5333 131.759 85.12 137.252 85.12C138.532 85.12 139.839 84.8533 141.172 84.32C142.559 83.7867 143.652 83.1467 144.452 82.4L144.532 68.32ZM194.231 44.96C199.458 44.96 203.645 46.8 206.791 50.48C209.991 54.16 211.591 59.5733 211.591 66.72C211.591 71.1467 210.578 75.2267 208.551 78.96C206.578 82.64 203.831 85.5467 200.311 87.68C196.845 89.8133 192.925 90.88 188.551 90.88C186.525 90.88 184.285 90.5867 181.831 90L182.151 98.96V104.96L189.991 105.84V110H167.111V105.84L172.391 104.88V55.52L166.951 52.24V48.88L178.791 45.36L180.871 46.08V50.88C181.991 49.3333 183.805 47.9733 186.311 46.8C188.871 45.5733 191.511 44.96 194.231 44.96ZM190.151 50.8C188.445 50.8 186.898 51.1733 185.511 51.92C184.125 52.6667 182.978 53.4933 182.071 54.4L182.151 82.64C182.685 83.6 183.645 84.3733 185.031 84.96C186.471 85.4933 188.125 85.76 189.991 85.76C192.178 85.76 194.178 85.0667 195.991 83.68C197.805 82.24 199.218 80.16 200.231 77.44C201.298 74.72 201.831 71.4667 201.831 67.68C201.831 62.24 200.738 58.08 198.551 55.2C196.365 52.2667 193.565 50.8 190.151 50.8ZM243.221 44.96C248.341 44.96 252.314 46.48 255.141 49.52C258.021 52.56 259.461 56.8267 259.461 62.32C259.461 64.6667 259.274 66.88 258.901 68.96H230.661C230.767 73.92 232.021 77.7867 234.421 80.56C236.874 83.3333 240.341 84.72 244.821 84.72C246.794 84.72 248.901 84.5067 251.141 84.08C253.381 83.6 255.194 83.0133 256.581 82.32L258.261 86.16C256.554 87.6533 254.074 88.8533 250.821 89.76C247.567 90.6133 244.341 91.04 241.141 91.04C234.634 90.9867 229.594 88.96 226.021 84.96C222.447 80.96 220.661 75.52 220.661 68.64C220.661 64.1067 221.621 60.0533 223.541 56.48C225.461 52.8533 228.127 50.0267 231.541 48C234.954 45.9733 238.847 44.96 243.221 44.96ZM241.381 49.68C238.447 49.68 236.021 50.88 234.101 53.28C232.234 55.68 231.114 59.1467 230.741 63.68H249.461C249.514 63.0933 249.541 62.2133 249.541 61.04C249.541 57.0933 248.687 54.32 246.981 52.72C245.914 50.6933 244.047 49.68 241.381 49.68ZM275.156 85.04V55.52L269.636 52.24V48.88L281.476 45.36L283.716 46.08V52.72C284.57 50.96 286.303 49.3067 288.916 47.76C291.583 46.16 294.036 45.36 296.276 45.36C298.303 45.36 299.61 45.4667 300.196 45.68V55.28C298.276 54.32 295.983 53.84 293.316 53.84C290.01 53.84 287.263 54.56 285.076 56V84.88L295.396 85.92V90H269.396V85.92L275.156 85.04ZM329.477 44.96C336.09 44.96 341.13 46.9867 344.597 51.04C348.064 55.04 349.797 60.4 349.797 67.12C349.797 71.8133 348.864 75.9733 346.997 79.6C345.13 83.1733 342.57 85.9733 339.317 88C336.064 89.9733 332.384 90.96 328.277 90.96C321.397 90.96 316.197 88.8533 312.677 84.64C309.157 80.3733 307.397 74.8267 307.397 68C307.397 63.3067 308.384 59.2267 310.357 55.76C312.33 52.2933 314.97 49.6267 318.277 47.76C321.637 45.8933 325.37 44.96 329.477 44.96ZM328.677 49.76C321.477 49.76 317.877 55.4667 317.877 66.88C317.877 72.1067 318.784 76.5867 320.597 80.32C322.41 84.0533 325.104 85.9467 328.677 86C332.57 86.0533 335.317 84.5067 336.917 81.36C338.57 78.2133 339.397 73.7067 339.397 67.84C339.397 62.4533 338.517 58.1067 336.757 54.8C335.05 51.44 332.357 49.76 328.677 49.76ZM365.248 85.12V55.52L359.808 52.24V48.88L371.728 45.36L373.888 46.08V51.76C375.915 49.9467 378.475 48.4267 381.568 47.2C384.715 45.9733 387.648 45.36 390.368 45.36C394.955 45.36 398.155 46.8 399.968 49.68C401.835 52.56 402.768 57.1467 402.768 63.44V85.12L408.688 85.92V90H387.088V85.92L392.928 85.04V64.96C392.928 61.8133 392.715 59.36 392.288 57.6C391.861 55.7867 391.061 54.4533 389.888 53.6C388.715 52.7467 387.008 52.32 384.768 52.32C383.381 52.32 381.781 52.5867 379.968 53.12C378.208 53.6533 376.608 54.4533 375.168 55.52V85.04L380.608 85.92V90H360.128V85.92L365.248 85.12ZM438.955 44.96C444.075 44.96 448.048 46.48 450.875 49.52C453.755 52.56 455.195 56.8267 455.195 62.32C455.195 64.6667 455.008 66.88 454.635 68.96H426.395C426.502 73.92 427.755 77.7867 430.155 80.56C432.608 83.3333 436.075 84.72 440.555 84.72C442.528 84.72 444.635 84.5067 446.875 84.08C449.115 83.6 450.928 83.0133 452.315 82.32L453.995 86.16C452.288 87.6533 449.808 88.8533 446.555 89.76C443.302 90.6133 440.075 91.04 436.875 91.04C430.368 90.9867 425.328 88.96 421.755 84.96C418.182 80.96 416.395 75.52 416.395 68.64C416.395 64.1067 417.355 60.0533 419.275 56.48C421.195 52.8533 423.862 50.0267 427.275 48C430.688 45.9733 434.582 44.96 438.955 44.96ZM437.115 49.68C434.182 49.68 431.755 50.88 429.835 53.28C427.968 55.68 426.848 59.1467 426.475 63.68H445.195C445.248 63.0933 445.275 62.2133 445.275 61.04C445.275 57.0933 444.422 54.32 442.715 52.72C441.648 50.6933 439.782 49.68 437.115 49.68Z" fill="#FF6600"/>
<path d="M222.798 105.38H224.096L230.586 121H228.958L226.934 116.116H219.916L217.914 121H216.264L222.798 105.38ZM226.582 114.906L223.436 107.184L220.246 114.906H226.582ZM242.409 121.22C241.294 121.22 240.304 120.949 239.439 120.406C238.574 119.849 237.892 119.123 237.393 118.228C236.894 117.319 236.645 116.321 236.645 115.236C236.645 114.151 236.887 113.168 237.371 112.288C237.855 111.393 238.53 110.682 239.395 110.154C240.26 109.611 241.258 109.34 242.387 109.34C243.458 109.34 244.396 109.589 245.203 110.088C246.024 110.572 246.64 111.232 247.051 112.068L245.599 112.53C245.276 111.943 244.822 111.489 244.235 111.166C243.663 110.829 243.025 110.66 242.321 110.66C241.544 110.66 240.84 110.858 240.209 111.254C239.593 111.65 239.094 112.2 238.713 112.904C238.346 113.593 238.163 114.371 238.163 115.236C238.163 116.101 238.354 116.886 238.735 117.59C239.116 118.294 239.622 118.859 240.253 119.284C240.884 119.695 241.58 119.9 242.343 119.9C242.842 119.9 243.326 119.812 243.795 119.636C244.264 119.46 244.668 119.225 245.005 118.932C245.342 118.624 245.57 118.294 245.687 117.942L247.161 118.382C246.956 118.925 246.618 119.416 246.149 119.856C245.68 120.281 245.122 120.619 244.477 120.868C243.832 121.103 243.142 121.22 242.409 121.22ZM254.288 121.22C253.188 121.22 252.205 120.949 251.34 120.406C250.489 119.863 249.822 119.145 249.338 118.25C248.854 117.341 248.612 116.358 248.612 115.302C248.612 114.231 248.854 113.249 249.338 112.354C249.837 111.445 250.511 110.719 251.362 110.176C252.227 109.619 253.203 109.34 254.288 109.34C255.388 109.34 256.363 109.619 257.214 110.176C258.079 110.719 258.754 111.445 259.238 112.354C259.737 113.249 259.986 114.231 259.986 115.302C259.986 116.358 259.744 117.341 259.26 118.25C258.776 119.145 258.101 119.863 257.236 120.406C256.385 120.949 255.403 121.22 254.288 121.22ZM250.13 115.324C250.13 116.175 250.313 116.952 250.68 117.656C251.061 118.345 251.567 118.895 252.198 119.306C252.829 119.702 253.525 119.9 254.288 119.9C255.051 119.9 255.747 119.695 256.378 119.284C257.009 118.873 257.515 118.316 257.896 117.612C258.277 116.908 258.468 116.131 258.468 115.28C258.468 114.429 258.277 113.652 257.896 112.948C257.515 112.244 257.009 111.687 256.378 111.276C255.747 110.865 255.051 110.66 254.288 110.66C253.54 110.66 252.851 110.873 252.22 111.298C251.589 111.709 251.083 112.266 250.702 112.97C250.321 113.674 250.13 114.459 250.13 115.324ZM279.538 121H278.042V114.598C278.042 113.278 277.829 112.303 277.404 111.672C276.979 111.027 276.348 110.704 275.512 110.704C274.632 110.704 273.855 111.012 273.18 111.628C272.505 112.244 272.029 113.036 271.75 114.004V121H270.254V114.598C270.254 113.249 270.041 112.266 269.616 111.65C269.205 111.019 268.582 110.704 267.746 110.704C266.881 110.704 266.103 111.005 265.414 111.606C264.739 112.207 264.263 112.999 263.984 113.982V121H262.488V109.538H263.852V112.134C264.321 111.254 264.937 110.572 265.7 110.088C266.463 109.589 267.306 109.34 268.23 109.34C269.183 109.34 269.953 109.619 270.54 110.176C271.127 110.719 271.486 111.423 271.618 112.288C272.674 110.323 274.148 109.34 276.04 109.34C277.331 109.34 278.233 109.795 278.746 110.704C279.274 111.599 279.538 112.794 279.538 114.29V121ZM288.557 121.22C287.603 121.22 286.745 120.971 285.983 120.472C285.235 119.973 284.641 119.357 284.201 118.624V125.686H282.705V109.538H284.047V111.76C284.501 111.041 285.103 110.462 285.851 110.022C286.613 109.567 287.435 109.34 288.315 109.34C289.107 109.34 289.833 109.509 290.493 109.846C291.153 110.169 291.725 110.609 292.209 111.166C292.707 111.723 293.089 112.361 293.353 113.08C293.617 113.784 293.749 114.517 293.749 115.28C293.749 116.351 293.529 117.341 293.089 118.25C292.663 119.145 292.055 119.863 291.263 120.406C290.485 120.949 289.583 121.22 288.557 121.22ZM288.139 119.9C288.975 119.9 289.693 119.68 290.295 119.24C290.911 118.785 291.387 118.206 291.725 117.502C292.062 116.798 292.231 116.057 292.231 115.28C292.231 114.459 292.04 113.696 291.659 112.992C291.277 112.288 290.764 111.723 290.119 111.298C289.488 110.873 288.769 110.66 287.963 110.66C287.464 110.66 286.936 110.792 286.379 111.056C285.836 111.305 285.352 111.65 284.927 112.09C284.516 112.515 284.274 112.985 284.201 113.498V117.018C284.538 117.825 285.066 118.507 285.785 119.064C286.503 119.621 287.288 119.9 288.139 119.9ZM296.349 104.94H297.845V118.404C297.845 118.976 297.94 119.35 298.131 119.526C298.336 119.702 298.593 119.79 298.901 119.79C299.165 119.79 299.429 119.761 299.693 119.702C299.971 119.643 300.199 119.585 300.375 119.526L300.639 120.736C300.36 120.853 300.015 120.949 299.605 121.022C299.209 121.095 298.864 121.132 298.571 121.132C297.896 121.132 297.353 120.934 296.943 120.538C296.547 120.142 296.349 119.599 296.349 118.91V104.94ZM307.227 121.22C306.127 121.22 305.144 120.949 304.279 120.406C303.414 119.863 302.732 119.137 302.233 118.228C301.734 117.319 301.485 116.321 301.485 115.236C301.485 114.165 301.727 113.183 302.211 112.288C302.71 111.393 303.392 110.682 304.257 110.154C305.122 109.611 306.105 109.34 307.205 109.34C308.334 109.34 309.324 109.611 310.175 110.154C311.026 110.697 311.686 111.415 312.155 112.31C312.639 113.19 312.881 114.158 312.881 115.214C312.881 115.449 312.874 115.647 312.859 115.808H303.047C303.12 116.629 303.355 117.363 303.751 118.008C304.147 118.639 304.653 119.145 305.269 119.526C305.885 119.893 306.56 120.076 307.293 120.076C308.041 120.076 308.745 119.885 309.405 119.504C310.065 119.123 310.534 118.624 310.813 118.008L312.111 118.36C311.876 118.917 311.51 119.416 311.011 119.856C310.527 120.281 309.962 120.619 309.317 120.868C308.672 121.103 307.975 121.22 307.227 121.22ZM303.003 114.73H311.473C311.414 113.909 311.187 113.183 310.791 112.552C310.395 111.907 309.889 111.408 309.273 111.056C308.657 110.689 307.975 110.506 307.227 110.506C306.479 110.506 305.797 110.689 305.181 111.056C304.565 111.408 304.059 111.907 303.663 112.552C303.282 113.183 303.062 113.909 303.003 114.73ZM320.582 120.45C320.406 120.523 320.083 120.655 319.614 120.846C319.144 121.037 318.602 121.132 317.986 121.132C317.34 121.132 316.776 120.949 316.292 120.582C315.808 120.215 315.566 119.665 315.566 118.932V110.726H313.982V109.538H315.566V105.666H317.062V109.538H319.702V110.726H317.062V118.514C317.091 118.939 317.238 119.255 317.502 119.46C317.78 119.651 318.096 119.746 318.448 119.746C318.858 119.746 319.225 119.68 319.548 119.548C319.885 119.401 320.098 119.299 320.186 119.24L320.582 120.45ZM327.207 121.22C326.107 121.22 325.125 120.949 324.259 120.406C323.394 119.863 322.712 119.137 322.213 118.228C321.715 117.319 321.465 116.321 321.465 115.236C321.465 114.165 321.707 113.183 322.191 112.288C322.69 111.393 323.372 110.682 324.237 110.154C325.103 109.611 326.085 109.34 327.185 109.34C328.315 109.34 329.305 109.611 330.155 110.154C331.006 110.697 331.666 111.415 332.135 112.31C332.619 113.19 332.861 114.158 332.861 115.214C332.861 115.449 332.854 115.647 332.839 115.808H323.027C323.101 116.629 323.335 117.363 323.731 118.008C324.127 118.639 324.633 119.145 325.249 119.526C325.865 119.893 326.54 120.076 327.273 120.076C328.021 120.076 328.725 119.885 329.385 119.504C330.045 119.123 330.515 118.624 330.793 118.008L332.091 118.36C331.857 118.917 331.49 119.416 330.991 119.856C330.507 120.281 329.943 120.619 329.297 120.868C328.652 121.103 327.955 121.22 327.207 121.22ZM322.983 114.73H331.453C331.395 113.909 331.167 113.183 330.771 112.552C330.375 111.907 329.869 111.408 329.253 111.056C328.637 110.689 327.955 110.506 327.207 110.506C326.459 110.506 325.777 110.689 325.161 111.056C324.545 111.408 324.039 111.907 323.643 112.552C323.262 113.183 323.042 113.909 322.983 114.73ZM345.749 121.22C344.634 121.22 343.644 120.949 342.779 120.406C341.914 119.849 341.232 119.123 340.733 118.228C340.234 117.319 339.985 116.321 339.985 115.236C339.985 114.151 340.227 113.168 340.711 112.288C341.195 111.393 341.87 110.682 342.735 110.154C343.6 109.611 344.598 109.34 345.727 109.34C346.798 109.34 347.736 109.589 348.543 110.088C349.364 110.572 349.98 111.232 350.391 112.068L348.939 112.53C348.616 111.943 348.162 111.489 347.575 111.166C347.003 110.829 346.365 110.66 345.661 110.66C344.884 110.66 344.18 110.858 343.549 111.254C342.933 111.65 342.434 112.2 342.053 112.904C341.686 113.593 341.503 114.371 341.503 115.236C341.503 116.101 341.694 116.886 342.075 117.59C342.456 118.294 342.962 118.859 343.593 119.284C344.224 119.695 344.92 119.9 345.683 119.9C346.182 119.9 346.666 119.812 347.135 119.636C347.604 119.46 348.008 119.225 348.345 118.932C348.682 118.624 348.91 118.294 349.027 117.942L350.501 118.382C350.296 118.925 349.958 119.416 349.489 119.856C349.02 120.281 348.462 120.619 347.817 120.868C347.172 121.103 346.482 121.22 345.749 121.22ZM357.628 121.22C356.528 121.22 355.545 120.949 354.68 120.406C353.829 119.863 353.162 119.145 352.678 118.25C352.194 117.341 351.952 116.358 351.952 115.302C351.952 114.231 352.194 113.249 352.678 112.354C353.176 111.445 353.851 110.719 354.702 110.176C355.567 109.619 356.542 109.34 357.628 109.34C358.728 109.34 359.703 109.619 360.554 110.176C361.419 110.719 362.094 111.445 362.578 112.354C363.076 113.249 363.326 114.231 363.326 115.302C363.326 116.358 363.084 117.341 362.6 118.25C362.116 119.145 361.441 119.863 360.576 120.406C359.725 120.949 358.742 121.22 357.628 121.22ZM353.47 115.324C353.47 116.175 353.653 116.952 354.02 117.656C354.401 118.345 354.907 118.895 355.538 119.306C356.168 119.702 356.865 119.9 357.628 119.9C358.39 119.9 359.087 119.695 359.718 119.284C360.348 118.873 360.854 118.316 361.236 117.612C361.617 116.908 361.808 116.131 361.808 115.28C361.808 114.429 361.617 113.652 361.236 112.948C360.854 112.244 360.348 111.687 359.718 111.276C359.087 110.865 358.39 110.66 357.628 110.66C356.88 110.66 356.19 110.873 355.56 111.298C354.929 111.709 354.423 112.266 354.042 112.97C353.66 113.674 353.47 114.459 353.47 115.324ZM365.894 104.94H367.39V118.404C367.39 118.976 367.485 119.35 367.676 119.526C367.881 119.702 368.138 119.79 368.446 119.79C368.71 119.79 368.974 119.761 369.238 119.702C369.516 119.643 369.744 119.585 369.92 119.526L370.184 120.736C369.905 120.853 369.56 120.949 369.15 121.022C368.754 121.095 368.409 121.132 368.116 121.132C367.441 121.132 366.898 120.934 366.488 120.538C366.092 120.142 365.894 119.599 365.894 118.91V104.94ZM371.888 104.94H373.384V118.404C373.384 118.976 373.479 119.35 373.67 119.526C373.875 119.702 374.132 119.79 374.44 119.79C374.704 119.79 374.968 119.761 375.232 119.702C375.511 119.643 375.738 119.585 375.914 119.526L376.178 120.736C375.899 120.853 375.555 120.949 375.144 121.022C374.748 121.095 374.403 121.132 374.11 121.132C373.435 121.132 372.893 120.934 372.482 120.538C372.086 120.142 371.888 119.599 371.888 118.91V104.94ZM382.766 121.22C381.666 121.22 380.683 120.949 379.818 120.406C378.953 119.863 378.271 119.137 377.772 118.228C377.273 117.319 377.024 116.321 377.024 115.236C377.024 114.165 377.266 113.183 377.75 112.288C378.249 111.393 378.931 110.682 379.796 110.154C380.661 109.611 381.644 109.34 382.744 109.34C383.873 109.34 384.863 109.611 385.714 110.154C386.565 110.697 387.225 111.415 387.694 112.31C388.178 113.19 388.42 114.158 388.42 115.214C388.42 115.449 388.413 115.647 388.398 115.808H378.586C378.659 116.629 378.894 117.363 379.29 118.008C379.686 118.639 380.192 119.145 380.808 119.526C381.424 119.893 382.099 120.076 382.832 120.076C383.58 120.076 384.284 119.885 384.944 119.504C385.604 119.123 386.073 118.624 386.352 118.008L387.65 118.36C387.415 118.917 387.049 119.416 386.55 119.856C386.066 120.281 385.501 120.619 384.856 120.868C384.211 121.103 383.514 121.22 382.766 121.22ZM378.542 114.73H387.012C386.953 113.909 386.726 113.183 386.33 112.552C385.934 111.907 385.428 111.408 384.812 111.056C384.196 110.689 383.514 110.506 382.766 110.506C382.018 110.506 381.336 110.689 380.72 111.056C380.104 111.408 379.598 111.907 379.202 112.552C378.821 113.183 378.601 113.909 378.542 114.73ZM395.326 121.154C394.534 121.154 393.808 120.993 393.148 120.67C392.503 120.347 391.938 119.915 391.454 119.372C390.985 118.815 390.618 118.184 390.354 117.48C390.09 116.776 389.958 116.05 389.958 115.302C389.958 114.231 390.185 113.249 390.64 112.354C391.095 111.445 391.718 110.719 392.51 110.176C393.317 109.619 394.241 109.34 395.282 109.34C396.265 109.34 397.115 109.589 397.834 110.088C398.567 110.587 399.183 111.203 399.682 111.936V109.538H401.024V121.044C401.024 122.115 400.767 123.009 400.254 123.728C399.741 124.447 399.059 124.989 398.208 125.356C397.357 125.723 396.426 125.906 395.414 125.906C394.094 125.906 393.031 125.671 392.224 125.202C391.432 124.733 390.779 124.102 390.266 123.31L391.19 122.584C391.645 123.303 392.246 123.838 392.994 124.19C393.757 124.542 394.563 124.718 395.414 124.718C396.162 124.718 396.844 124.579 397.46 124.3C398.091 124.036 398.589 123.633 398.956 123.09C399.337 122.547 399.528 121.865 399.528 121.044V118.778C399.088 119.497 398.487 120.076 397.724 120.516C396.961 120.941 396.162 121.154 395.326 121.154ZM395.744 119.9C396.345 119.9 396.917 119.761 397.46 119.482C398.003 119.203 398.457 118.851 398.824 118.426C399.205 117.986 399.44 117.531 399.528 117.062V113.52C399.308 112.963 398.993 112.471 398.582 112.046C398.171 111.606 397.702 111.269 397.174 111.034C396.646 110.785 396.111 110.66 395.568 110.66C394.717 110.66 393.984 110.895 393.368 111.364C392.767 111.819 392.297 112.405 391.96 113.124C391.637 113.828 391.476 114.561 391.476 115.324C391.476 116.145 391.667 116.908 392.048 117.612C392.429 118.301 392.943 118.859 393.588 119.284C394.233 119.695 394.952 119.9 395.744 119.9ZM409.278 121.22C408.178 121.22 407.195 120.949 406.33 120.406C405.464 119.863 404.782 119.137 404.284 118.228C403.785 117.319 403.536 116.321 403.536 115.236C403.536 114.165 403.778 113.183 404.262 112.288C404.76 111.393 405.442 110.682 406.308 110.154C407.173 109.611 408.156 109.34 409.256 109.34C410.385 109.34 411.375 109.611 412.226 110.154C413.076 110.697 413.736 111.415 414.206 112.31C414.69 113.19 414.932 114.158 414.932 115.214C414.932 115.449 414.924 115.647 414.91 115.808H405.098C405.171 116.629 405.406 117.363 405.802 118.008C406.198 118.639 406.704 119.145 407.32 119.526C407.936 119.893 408.61 120.076 409.344 120.076C410.092 120.076 410.796 119.885 411.456 119.504C412.116 119.123 412.585 118.624 412.864 118.008L414.162 118.36C413.927 118.917 413.56 119.416 413.062 119.856C412.578 120.281 412.013 120.619 411.368 120.868C410.722 121.103 410.026 121.22 409.278 121.22ZM405.054 114.73H413.524C413.465 113.909 413.238 113.183 412.842 112.552C412.446 111.907 411.94 111.408 411.324 111.056C410.708 110.689 410.026 110.506 409.278 110.506C408.53 110.506 407.848 110.689 407.232 111.056C406.616 111.408 406.11 111.907 405.714 112.552C405.332 113.183 405.112 113.909 405.054 114.73ZM427.445 121.154C426.653 121.154 425.927 120.993 425.267 120.67C424.622 120.347 424.057 119.915 423.573 119.372C423.104 118.815 422.737 118.184 422.473 117.48C422.209 116.776 422.077 116.05 422.077 115.302C422.077 114.231 422.305 113.249 422.759 112.354C423.214 111.445 423.837 110.719 424.629 110.176C425.436 109.619 426.36 109.34 427.401 109.34C428.384 109.34 429.235 109.589 429.953 110.088C430.687 110.587 431.303 111.203 431.801 111.936V109.538H433.143V121.044C433.143 122.115 432.887 123.009 432.373 123.728C431.86 124.447 431.178 124.989 430.327 125.356C429.477 125.723 428.545 125.906 427.533 125.906C426.213 125.906 425.15 125.671 424.343 125.202C423.551 124.733 422.899 124.102 422.385 123.31L423.309 122.584C423.764 123.303 424.365 123.838 425.113 124.19C425.876 124.542 426.683 124.718 427.533 124.718C428.281 124.718 428.963 124.579 429.579 124.3C430.21 124.036 430.709 123.633 431.075 123.09C431.457 122.547 431.647 121.865 431.647 121.044V118.778C431.207 119.497 430.606 120.076 429.843 120.516C429.081 120.941 428.281 121.154 427.445 121.154ZM427.863 119.9C428.465 119.9 429.037 119.761 429.579 119.482C430.122 119.203 430.577 118.851 430.943 118.426C431.325 117.986 431.559 117.531 431.647 117.062V113.52C431.427 112.963 431.112 112.471 430.701 112.046C430.291 111.606 429.821 111.269 429.293 111.034C428.765 110.785 428.23 110.66 427.687 110.66C426.837 110.66 426.103 110.895 425.487 111.364C424.886 111.819 424.417 112.405 424.079 113.124C423.757 113.828 423.595 114.561 423.595 115.324C423.595 116.145 423.786 116.908 424.167 117.612C424.549 118.301 425.062 118.859 425.707 119.284C426.353 119.695 427.071 119.9 427.863 119.9ZM436.337 116.27V109.538H437.833V116.006C437.833 118.602 438.72 119.9 440.495 119.9C441.375 119.9 442.196 119.614 442.959 119.042C443.736 118.47 444.294 117.707 444.631 116.754V109.538H446.127V119.196C446.127 119.592 446.303 119.797 446.655 119.812V121C446.479 121.029 446.34 121.044 446.237 121.044C446.149 121.044 446.054 121.044 445.951 121.044C445.643 121.015 445.379 120.897 445.159 120.692C444.954 120.487 444.851 120.237 444.851 119.944L444.807 118.404C444.308 119.299 443.626 119.995 442.761 120.494C441.91 120.978 440.986 121.22 439.989 121.22C437.554 121.22 436.337 119.57 436.337 116.27ZM449.509 107.14V104.94H451.005V107.14H449.509ZM449.509 121V109.538H451.005V121H449.509ZM453.53 115.302C453.53 114.217 453.75 113.227 454.19 112.332C454.645 111.423 455.268 110.697 456.06 110.154C456.852 109.611 457.754 109.34 458.766 109.34C459.72 109.34 460.57 109.597 461.318 110.11C462.081 110.609 462.675 111.217 463.1 111.936V104.94H464.596V119.196C464.596 119.592 464.772 119.797 465.124 119.812V121C464.831 121.044 464.604 121.059 464.442 121.044C464.12 121.029 463.841 120.912 463.606 120.692C463.386 120.457 463.276 120.193 463.276 119.9V118.778C462.822 119.526 462.206 120.12 461.428 120.56C460.651 121 459.844 121.22 459.008 121.22C458.216 121.22 457.483 121.059 456.808 120.736C456.134 120.413 455.547 119.973 455.048 119.416C454.564 118.859 454.19 118.228 453.926 117.524C453.662 116.805 453.53 116.065 453.53 115.302ZM463.1 117.062V113.52C462.91 112.992 462.602 112.515 462.176 112.09C461.751 111.65 461.267 111.305 460.724 111.056C460.196 110.792 459.668 110.66 459.14 110.66C458.319 110.66 457.6 110.887 456.984 111.342C456.383 111.782 455.914 112.361 455.576 113.08C455.239 113.784 455.07 114.525 455.07 115.302C455.07 116.123 455.254 116.886 455.62 117.59C456.002 118.294 456.515 118.859 457.16 119.284C457.806 119.695 458.532 119.9 459.338 119.9C459.837 119.9 460.358 119.775 460.9 119.526C461.458 119.262 461.942 118.917 462.352 118.492C462.778 118.067 463.027 117.59 463.1 117.062ZM472.936 121.22C471.836 121.22 470.853 120.949 469.988 120.406C469.123 119.863 468.441 119.137 467.942 118.228C467.443 117.319 467.194 116.321 467.194 115.236C467.194 114.165 467.436 113.183 467.92 112.288C468.419 111.393 469.101 110.682 469.966 110.154C470.831 109.611 471.814 109.34 472.914 109.34C474.043 109.34 475.033 109.611 475.884 110.154C476.735 110.697 477.395 111.415 477.864 112.31C478.348 113.19 478.59 114.158 478.59 115.214C478.59 115.449 478.583 115.647 478.568 115.808H468.756C468.829 116.629 469.064 117.363 469.46 118.008C469.856 118.639 470.362 119.145 470.978 119.526C471.594 119.893 472.269 120.076 473.002 120.076C473.75 120.076 474.454 119.885 475.114 119.504C475.774 119.123 476.243 118.624 476.522 118.008L477.82 118.36C477.585 118.917 477.219 119.416 476.72 119.856C476.236 120.281 475.671 120.619 475.026 120.868C474.381 121.103 473.684 121.22 472.936 121.22ZM468.712 114.73H477.182C477.123 113.909 476.896 113.183 476.5 112.552C476.104 111.907 475.598 111.408 474.982 111.056C474.366 110.689 473.684 110.506 472.936 110.506C472.188 110.506 471.506 110.689 470.89 111.056C470.274 111.408 469.768 111.907 469.372 112.552C468.991 113.183 468.771 113.909 468.712 114.73Z" fill="black"/>
</svg>
