<svg width="8" height="16" viewBox="0 0 8 16" fill="none" xmlns="http://www.w3.org/2000/svg">
<path d="M4.00004 3.5C4.97004 3.5 5.75004 2.72 5.75004 1.75C5.75004 0.78 4.97004 0 4.00004 0C3.03004 0 2.25004 0.78 2.25004 1.75C2.25004 2.72 3.03004 3.5 4.00004 3.5ZM6.00004 12V15C6.00004 15.55 5.55004 16 5.00004 16H3.00004C2.45004 16 2.00004 15.55 2.00004 15V12H1.44004C0.740042 12 0.260043 11.3 0.500043 10.65L2.38004 5.62C2.63004 4.95 3.28004 4.5 4.00004 4.5C4.72004 4.5 5.37004 4.95 5.62004 5.62L7.50004 10.65C7.74004 11.3 7.26004 12 6.56004 12H6.00004Z" fill="#F6F6F6"/>
</svg>
